<?xml version="1.0" standalone="no"?><!DOCTYPE svg PUBLIC "-//W3C//DTD SVG 1.1//EN" "http://www.w3.org/Graphics/SVG/1.1/DTD/svg11.dtd"><svg t="1548314650856" class="icon" style="" viewBox="0 0 1390 1024" version="1.1" xmlns="http://www.w3.org/2000/svg" p-id="3982" xmlns:xlink="http://www.w3.org/1999/xlink" width="271.484375" height="200"><defs><style type="text/css"></style></defs><path d="M1279.461328 1023.998758h-73.995772a7.040297 7.040297 0 1 1 0-14.080594h73.995772a7.040297 7.040297 0 1 1 0 14.080594zM1151.650562 1023.998758H167.345221a7.040297 7.040297 0 1 1 0-14.080594h984.305341a7.040297 7.040297 0 1 1 0 14.080594zM135.263372 1023.998758H111.45999a7.040297 7.040297 0 1 1 0-14.080594h23.803382a7.040297 7.040297 0 1 1 0 14.080594z" fill="#7ECAFC" p-id="3983"></path><path d="M149.356386 496.542766c-0.699186-7.821449-7.606601-13.593772-15.426808-12.894586a14.627028 14.627028 0 0 0-9.558858 5.065686 13.660834 13.660834 0 0 0-3.179249 10.316414 14.6084 14.6084 0 0 0 5.1402 9.558858 13.088321 13.088321 0 0 0 9.003731 3.381677h1.126398c7.818965-0.699186 13.59253-7.606601 12.894586-15.428049z m-8.663453 11.406797a11.529744 11.529744 0 0 1-12.756735-1.398373 10.561067 10.561067 0 0 1-4.052301-7.801578 11.539679 11.539679 0 0 1 2.593075-8.488346 10.578453 10.578453 0 0 1 7.821449-4.053542h1.033256a11.447779 11.447779 0 0 1 11.508632 10.475376 11.529744 11.529744 0 0 1-6.147376 11.266463zM1298.96279 293.011236c-0.968677-10.820623-10.527536-18.809727-21.346916-17.841049a20.221761 20.221761 0 0 0-13.223688 7.008008 18.901627 18.901627 0 0 0-4.401272 14.27433 20.210584 20.210584 0 0 0 7.113569 13.224929 18.108057 18.108057 0 0 0 12.457439 4.679457h1.558577c10.819381-0.964952 18.807243-10.522568 17.842291-21.345675z m-11.986761 15.783232a15.955855 15.955855 0 0 1-17.652282-1.934871 14.6084 14.6084 0 0 1-5.608393-10.794543 15.96579 15.96579 0 0 1 3.587832-11.745834 14.639447 14.639447 0 0 1 10.821864-5.608393h1.430662c8.279708-0.074514 15.221895 6.241759 15.922324 14.494145a15.947161 15.947161 0 0 1-8.502007 15.589496zM210.586729 111.799027a3.055059 3.055059 0 0 1-3.055059-3.05506V88.989159l-13.951437 13.952679a3.132057 3.132057 0 0 1-4.428595-4.427352l13.955164-13.952679H183.315978a3.06872 3.06872 0 1 1 0-6.138683h19.790824l-13.955164-13.786265a2.915967 2.915967 0 0 1 0-4.427352 2.914725 2.914725 0 0 1 2.215539-1.01587c0.850697 0 1.656687 0.368843 2.213056 1.01587l13.951437 13.818554V54.270769a3.051334 3.051334 0 0 1 4.693118-3.164346 3.04264 3.04264 0 0 1 1.277909 3.164346v19.757292l14.089287-13.953921a2.918451 2.918451 0 0 1 4.428595 0 2.918451 2.918451 0 0 1 0 4.427352L218.064173 78.456656h19.756051a3.067478 3.067478 0 1 1 0 6.136198H218.064173l13.955164 13.956405c0.791086 0.787361 1.097834 1.94108 0.809715 3.021528a3.138266 3.138266 0 0 1-2.213056 2.215539 3.134541 3.134541 0 0 1-3.025253-0.81344l-14.089288-13.984969v19.75605c0.336553 1.71133-1.372293 3.053817-3.051334 3.053818h0.136608zM204.757279 935.655384h-8.443638v-8.444879c0-1.404582-1.136333-2.540915-2.540915-2.540916s-2.540915 1.136333-2.540915 2.540916v8.444879h-8.443638a2.539673 2.539673 0 1 0 0 5.08183h8.443638v8.443638a2.529738 2.529738 0 0 0 2.528496 2.526012l0.02608-0.109286a2.521045 2.521045 0 0 0 2.527254-2.528496v-8.330626h8.443638a2.542157 2.542157 0 0 0 0-5.083072zM1242.465305 864.861215c0 16.738248-11.334767 29.903566-25.352025 29.903566 14.05824 0 25.352025 13.391343 25.352025 29.904808 0-16.740732 11.336009-29.904808 25.348299-29.904808-14.05824 0-25.348299-13.386376-25.348299-29.903566z m0 0" fill="#CCCCCC" p-id="3984"></path><path d="M988.198679 129.231493H402.550016C319.268602 129.231493 252.104489 196.395606 252.104489 279.675778v586.993634c0 81.935201 67.164113 149.094346 150.445527 149.094347h586.992392c81.936443 0 149.095588-67.159146 149.095588-150.443044V279.675778c-0.001242-83.280172-67.160387-150.444285-150.439317-150.444285z" fill="#DFEFF7" p-id="3985"></path><path d="M326.618131 866.669412v-586.993634c0-83.280172 67.164113-150.444285 150.445527-150.444285h-74.513642C319.268602 129.231493 252.104489 196.395606 252.104489 279.675778v586.993634c0 81.935201 67.164113 149.094346 150.445527 149.094347h74.513642c-83.281414 0-150.445527-67.159146-150.445527-149.094347z" fill="#C7E6F9" p-id="3986"></path><path d="M989.542408 1022.804056H402.550016c-86.838198 0-157.485824-70.04034-157.485824-156.134644v-586.993634c0-42.158577 16.355744-81.732772 46.054398-111.431426s69.272849-46.054398 111.431426-46.054398h585.648663c42.157335 0 81.73153 16.355744 111.428942 46.054398 29.69617 29.698654 46.050673 69.271607 46.050673 111.431426v326.867752a7.040297 7.040297 0 1 1-14.080595 0V279.675778c0-79.072635-64.328869-143.403988-143.39902-143.403988H402.550016c-79.073877 0-143.403988 64.330111-143.403988 143.403988v586.993634c0 78.327499 64.330111 142.054049 143.403988 142.054049h586.992392c78.328741 0 142.055291-64.330111 142.055291-143.402746v-51.587036a7.040297 7.040297 0 1 1 14.080595 0v51.587036c-0.001242 86.836957-70.042824 157.483341-156.135886 157.483341z" fill="#7ECAFC" p-id="3987"></path><path d="M1138.636754 709.003513a7.040297 7.040297 0 0 1-7.040297-7.040297v-58.989966a7.040297 7.040297 0 1 1 14.080595 0v58.989966a7.040297 7.040297 0 0 1-7.040298 7.040297z" fill="#7ECAFC" p-id="3988"></path><path d="M470.390961 345.032936c-1.778392 0-3.626331-0.274459-5.407206-0.958743-8.145583-3.012835-12.390377-12.050098-9.378784-20.19568 3.218989-8.829867 12.872232-24.298899 41.619595-28.270476 17.731763-2.463918 38.675064 0.274459 59.074415 7.734516 8.148067 2.944531 12.390377 11.97931 9.378784 20.195681-2.942047 8.145583-11.97931 12.390377-20.190713 9.378783-32.651878-11.912248-57.640028-5.614603-60.307617 1.71133a15.724862 15.724862 0 0 1-14.788474 10.404589z" fill="#B1DDFC" p-id="3989"></path><path d="M467.583039 810.027867c-8.760321 0-15.742249-7.118537-15.742249-15.813036v-0.067063c0.614738-154.018456 1.025804-269.497215 1.300263-346.507063l0.478129-115.410455c0.070788-8.693258 7.119778-15.747216 15.745975-15.747216 8.693258 0 15.743491 7.052716 15.743491 15.747216 0 2.188217-0.548917 153.332931-1.778393 462.119947 0 8.62868-7.052716 15.67767-15.747216 15.67767z" fill="#B1DDFC" p-id="3990"></path><path d="M608.667169 769.436561h31.484497v68.177499h-31.484497z" fill="#7ECAFC" p-id="3991"></path><path d="M904.382009 288.762717H590.18406c-26.766542 0-48.602765 21.836223-48.602765 48.602765v383.332948c0 26.761575 21.836223 48.601523 48.602765 48.601523h314.197949c26.7653 0 48.601523-21.839948 48.601523-48.601523V337.365482c-0.001242-26.766542-21.837465-48.602765-48.601523-48.602765z m17.112057 431.935713c0 9.444604-7.663728 17.112058-17.112057 17.112057H590.18406c-9.445846 0-17.1133-7.667454-17.1133-17.112057V337.365482c0-9.445846 7.667454-17.1133 17.1133-17.1133h314.197949c9.44833 0 17.112058 7.667454 17.112057 17.1133v383.332948z" fill="#B1DDFC" p-id="3992"></path><path d="M649.052321 355.163065h129.375553c12.11716 0 21.907011 9.786125 21.90701 21.902043s-9.789851 21.907011-21.90701 21.907011H649.052321c-12.115918 0-21.905769-9.791093-21.905769-21.907011s9.789851-21.902043 21.905769-21.902043z" fill="#7ECAFC" p-id="3993"></path><path d="M639.469866 443.466699h229.316976c8.693258 0 15.743491 7.048991 15.74349 15.742248s-7.050232 15.745974-15.74349 15.745975H639.469866c-8.693258 0-15.745974-7.052716-15.745974-15.745975s7.052716-15.742249 15.745974-15.742248z" fill="#B1DDFC" p-id="3994"></path><path d="M639.469866 519.449501h229.316976c8.693258 0 15.743491 7.048991 15.74349 15.741007 0 8.6945-7.050232 15.743491-15.74349 15.743491H639.469866c-8.693258 0-15.745974-7.048991-15.745974-15.743491 0-8.692016 7.052716-15.741007 15.745974-15.741007z" fill="#F9F9F9" p-id="3995"></path><path d="M639.469866 595.428578h229.316976c8.693258 0 15.743491 7.052716 15.74349 15.747217 0 8.692016-7.050232 15.741007-15.74349 15.741007H639.469866c-8.693258 0-15.745974-7.048991-15.745974-15.741007 0-8.6945 7.052716-15.747216 15.745974-15.747217zM642.892526 671.411381h229.316976c8.693258 0 15.743491 7.052716 15.74349 15.747216 0 8.692016-7.050232 15.742249-15.74349 15.742249H642.892526c-8.693258 0-15.745974-7.050232-15.745974-15.742249 0-8.695742 7.052716-15.747216 15.745974-15.747216zM554.793806 856.232535c-25.944408 0-47.368322-3.215264-63.659489-9.582454-11.226722-4.381402-20.128619-10.335042-26.492083-17.660975-7.804062-8.968959-11.704851-19.784614-11.774397-32.034657 0-13.556515 5.408449-26.150563 15.609366-36.418543 10.13013-10.198434 24.777028-18.072042 43.397987-23.410944 15.265361-4.381402 32.71894-6.778258 49.15044-6.778258v31.488224c-29.09261 0-57.981549 8.626196-70.234075 20.947026-4.381402 4.38016-6.434253 8.900655-6.434253 14.101707 0 6.230582 2.122397 14.167527 18.209892 20.467656 12.456197 4.859531 30.529481 7.390511 52.227853 7.390511 16.222862 0 61.12975-11.02181 71.805072-16.016707l13.419907 28.477872c-13.96634 6.572103-64.075523 19.029542-85.22622 19.029542z" fill="#B1DDFC" p-id="3996"></path></svg>