<?xml version="1.0" standalone="no"?><!DOCTYPE svg PUBLIC "-//W3C//DTD SVG 1.1//EN" "http://www.w3.org/Graphics/SVG/1.1/DTD/svg11.dtd"><svg t="1548311461962" class="icon" style="" viewBox="0 0 1390 1024" version="1.1" xmlns="http://www.w3.org/2000/svg" p-id="3142" xmlns:xlink="http://www.w3.org/1999/xlink" width="271.484375" height="200"><defs><style type="text/css"></style></defs><path d="M1279.461313 1023.998746h-73.995771a7.040297 7.040297 0 1 1 0-14.080595h73.995771a7.040297 7.040297 0 1 1 0 14.080595zM1151.650548 1023.998746H167.345219a7.040297 7.040297 0 1 1 0-14.080595h984.305329a7.040297 7.040297 0 1 1 0 14.080595zM135.263371 1023.998746H111.459988a7.040297 7.040297 0 1 1 0-14.080595h23.803383a7.040297 7.040297 0 1 1 0 14.080595z" fill="#7ECAFC" p-id="3143"></path><path d="M125.553002 496.54276c-0.699186-7.821449-7.606601-13.593772-15.426808-12.894586a14.627028 14.627028 0 0 0-9.558858 5.065686 13.660834 13.660834 0 0 0-3.179249 10.316414 14.608399 14.608399 0 0 0 5.140199 9.558858 13.088321 13.088321 0 0 0 9.003732 3.381677h1.126398c7.820207-0.699186 13.593772-7.606601 12.894586-15.428049z m-8.662211 11.406796a11.529744 11.529744 0 0 1-12.756736-1.398372 10.561067 10.561067 0 0 1-4.0523-7.801578 11.539679 11.539679 0 0 1 2.593075-8.488346 10.578453 10.578453 0 0 1 7.821448-4.053542h1.033256a11.447779 11.447779 0 0 1 11.508632 10.475376 11.529744 11.529744 0 0 1-6.147375 11.266462zM1244.547946 126.83091c-0.968677-10.820623-10.527536-18.809727-21.346916-17.841049a20.22176 20.22176 0 0 0-13.223687 7.008008 18.901627 18.901627 0 0 0-4.401273 14.27433 20.210583 20.210583 0 0 0 7.113569 13.224929 18.108057 18.108057 0 0 0 12.457439 4.679457h1.558577c10.818139-0.964952 18.807243-10.522568 17.842291-21.345675z m-11.988003 15.783232a15.955854 15.955854 0 0 1-17.652281-1.934871 14.608399 14.608399 0 0 1-5.608394-10.794543 15.96579 15.96579 0 0 1 3.587832-11.745834 14.639447 14.639447 0 0 1 10.821865-5.608393h1.430662c8.279707-0.074514 15.221895 6.241759 15.922323 14.494145a15.943435 15.943435 0 0 1-8.502007 15.589496zM240.90136 99.714155a3.055059 3.055059 0 0 1-3.055059-3.05506V76.904287L223.894863 90.856966a3.132057 3.132057 0 0 1-4.428594-4.427352l13.955163-13.952679H213.630609a3.06872 3.06872 0 1 1 0-6.138682h19.790823l-13.955163-13.786266a2.915967 2.915967 0 0 1 0-4.427352 2.914725 2.914725 0 0 1 2.215539-1.015869c0.850697 0 1.656687 0.368843 2.213055 1.015869l13.951438 13.818555V42.185898a3.051334 3.051334 0 0 1 4.693117-3.164346 3.04264 3.04264 0 0 1 1.277909 3.164346v19.757292l14.089288-13.953921a2.918451 2.918451 0 0 1 4.428594 0 2.918451 2.918451 0 0 1 0 4.427352L248.378804 66.373026h19.75605a3.067478 3.067478 0 1 1 0 6.136198H248.378804l13.955163 13.956405c0.791086 0.787361 1.097834 1.94108 0.809715 3.021528a3.138266 3.138266 0 0 1-2.213055 2.215539 3.134541 3.134541 0 0 1-3.025254-0.81344l-14.089288-13.984969v19.75605c0.336553 1.71133-1.372293 3.053817-3.051333 3.053818h0.136608zM178.329772 900.124785h-8.443638V891.679906c0-1.404582-1.136333-2.540915-2.540915-2.540916s-2.540915 1.136333-2.540915 2.540916v8.444879h-8.443638a2.539673 2.539673 0 1 0 0 5.08183h8.443638v8.443638a2.529738 2.529738 0 0 0 2.528496 2.526012l0.02608-0.109287a2.521045 2.521045 0 0 0 2.527254-2.528496v-8.330625h8.443638a2.542157 2.542157 0 0 0 0-5.083072zM1242.46529 774.385499c0 16.738248-11.334767 29.903566-25.352024 29.903566 14.05824 0 25.352025 13.391343 25.352024 29.904808 0-16.740731 11.336009-29.904808 25.348299-29.904808-14.05824 0-25.348299-13.386376-25.348299-29.903566z m0 0" fill="#CCCCCC" p-id="3144"></path><path d="M988.198667 129.231492H402.550011C319.268598 129.231492 252.104486 196.395604 252.104486 279.675775v586.993627c0 81.9352 67.164112 149.094345 150.445525 149.094344h586.992385c81.936442 0 149.095586-67.159145 149.095587-150.443041V279.675775c-0.001242-83.280171-67.160387-150.444283-150.439316-150.444283z" fill="#DFEFF7" p-id="3145"></path><path d="M326.618127 866.669402v-586.993627c0-83.280171 67.164112-150.444283 150.445525-150.444283h-74.513641C319.268598 129.231492 252.104486 196.395604 252.104486 279.675775v586.993627c0 81.9352 67.164112 149.094345 150.445525 149.094344h74.513641c-83.281413 0-150.445525-67.159145-150.445525-149.094344z" fill="#C7E6F9" p-id="3146"></path><path d="M989.542396 1022.804044H402.550011c-86.838197 0-157.485822-70.040339-157.485822-156.134642v-586.993627c0-42.158576 16.355744-81.732771 46.054397-111.431425s69.272848-46.054398 111.431425-46.054397h585.648656c42.157334 0 81.731529 16.355744 111.428941 46.054397 29.69617 29.698654 46.050672 69.271606 46.050672 111.431425v326.867748a7.040297 7.040297 0 1 1-14.080595 0V279.675775c0-79.072634-64.328868-143.403986-143.399018-143.403986H402.550011c-79.073876 0-143.403986 64.33011-143.403986 143.403986v586.993627c0 78.327498 64.33011 142.054047 143.403986 142.054047h586.992385c78.32874 0 142.055289-64.33011 142.055289-143.402744v-51.587036a7.040297 7.040297 0 1 1 14.080595 0v51.587036c-0.001242 86.836955-70.042823 157.483339-156.135884 157.483339z" fill="#7ECAFC" p-id="3147"></path><path d="M1138.636741 709.003505a7.040297 7.040297 0 0 1-7.040298-7.040297v-58.989966a7.040297 7.040297 0 1 1 14.080595 0v58.989966a7.040297 7.040297 0 0 1-7.040297 7.040297zM525.966955 666.851138l-45.270763 66.291061s-6.470268 35.572812 9.701676 51.743514c17.783922 17.786406 80.844817 9.700434 80.844817 9.700434l27.488082-35.57157c-0.002484 1.616946-77.610925-61.44519-72.763812-92.163439zM909.178192 366.102905c-51.743514-51.742272-135.820981-51.742272-189.181441 0-51.741031 51.742272-51.741031 135.820981 0 189.182684 51.741031 53.354251 135.819739 51.739789 189.181441 0 51.741031-53.361702 51.741031-137.440411 0-189.182684z" fill="#7ECAFC" p-id="3148"></path><path d="M800.842809 424.310478a53.677143 53.677143 0 0 1 0-75.992737c21.020298-21.02154 54.973681-21.02154 75.996463 0 21.020298 21.019056 21.020298 54.973681 0 75.991495-10.07176 10.094115-23.740046 15.763361-37.999473 15.763361s-27.928955-5.668004-37.99699-15.762119z" fill="#FFFFFF" p-id="3149"></path><path d="M537.284335 820.4548c-19.40211 0-38.805462-8.082246-53.355493-22.636003-27.489324-27.489324-29.10627-72.760087-4.853321-103.483302l151.995408-177.859094c6.461575-6.470268 16.164493-8.08473 22.636003-1.618188 6.464058 6.470268 8.082246 16.170702 1.618188 22.637244l-151.995409 177.864061c-14.553756 17.781439-14.553756 43.653817 1.620671 59.824519 16.170702 16.165734 42.035629 17.783922 59.824519 1.616946L791.143617 584.38565c6.467784-6.466542 17.785164-4.847112 22.638486 1.618187 6.4653 6.469026 4.847112 17.786406-1.616946 22.636003l-226.372442 192.414091c-12.938052 12.93681-30.720732 19.400868-48.50838 19.400869z m0 0" fill="#B1DDFC" p-id="3150"></path><path d="M817.009786 610.258028c-37.187275 0-74.378275-14.552514-103.480819-42.038113-56.59311-56.595594-56.59311-148.756549 0-206.964122 27.490566-27.489324 64.681566-42.04308 103.480819-42.04308 38.806704 0 75.997704 14.553756 103.484545 42.04308 56.590627 56.589385 56.590627 148.751582 0 206.964122-27.48684 27.485598-66.294787 42.038113-103.484545 42.038113z m0-260.325825c-30.718249 0-58.206331 11.322348-80.844817 33.95835-22.637244 22.637244-33.954624 50.124084-33.954624 80.846059 0 30.721974 11.31738 58.205089 33.954624 80.848543 43.6563 43.653817 116.417629 43.653817 160.075171 0 21.020298-21.024024 33.955866-50.125326 33.955867-80.848543 0-30.720732-11.31738-58.208815-33.955867-80.846059-22.63476-22.63476-48.507138-33.95835-79.230354-33.95835z m0 0" fill="#B1DDFC" p-id="3151"></path><path d="M909.178192 571.451323c-1.618188 0-4.85208 0-6.470268-1.611978-30.720732-14.553756-59.825761-32.342646-85.698138-53.361702-6.464058-6.470268-8.082246-16.170702-1.611979-22.637245 6.4653-6.470268 16.165734-8.087214 22.636003-1.616946 24.252948 19.399626 50.125326 35.57157 79.226629 48.507139 8.085972 3.233892 11.31738 12.935568 8.085972 21.020298-3.233892 6.469026-9.702918 9.700434-16.168219 9.700434z m-119.650279-85.696896c-4.853322 0-8.088456-1.614462-11.31738-4.847113-6.472752-6.470268-12.93681-14.554998-19.407078-22.638486-4.847112-6.469026-4.847112-17.786406 3.233892-22.63476 6.467784-4.853322 17.785164-4.853322 22.638486 3.230166 4.853322 6.470268 11.31738 12.935568 17.786406 21.024024 6.466542 6.464058 4.848354 16.166976-1.618188 22.637244-3.233892 1.614462-6.470268 3.228924-11.316138 3.228925z m-42.044322-56.591869c-4.850838 0-11.31738-3.233892-14.552514-8.083488-16.166976-25.869894-22.637244-43.657542-22.637244-45.27573-3.235134-8.083488 1.616946-17.78268 9.702918-21.020299 8.087214-3.233892 17.786406 1.61943 21.022782 9.701676 0 0 6.464058 16.170702 19.40211 38.806705 4.85208 8.083488 1.615704 17.787648-4.853322 22.637244-1.611978 3.233892-4.849596 3.233892-8.08473 3.233892z m-85.695655 226.372442c-4.85208 0-8.082246-1.618188-11.31738-4.85208-6.464058-6.469026-6.464058-16.170702 0-22.637244l33.953382-33.955867c6.470268-6.469026 16.170702-6.469026 22.636003 0 6.470268 6.466542 6.470268 16.168218 0 22.638486L673.106558 650.68292c-3.236376 3.233892-6.4653 4.85208-11.318622 4.85208z m-53.361702 118.033333h-3.230166c-75.993979-17.790132-97.015519-95.397331-98.629981-98.633707-1.618188-8.083488 3.230166-17.787648 11.314896-19.399626 8.08473-1.618188 17.785164 3.231408 19.40211 11.316138 0 3.23265 17.787648 61.442707 74.380759 74.378275 8.082246 1.61322 14.552514 11.318622 11.313654 19.40211 0.001242 8.082246-8.078521 12.93681-14.551272 12.93681z m0 0M458.057706 839.86312c-4.85208 0-8.085972-1.618188-11.31738-4.854564-6.470268-6.469026-6.470268-16.16946 0-22.636002l38.802979-38.805463c6.470268-6.47151 16.170702-6.47151 22.638486 0 6.467784 6.464058 6.467784 16.170702 0 22.636002l-38.805463 38.805463c-3.23265 3.237618-8.087214 4.854564-11.318622 4.854564z m0 0" fill="#B1DDFC" p-id="3152"></path></svg>