<?xml version="1.0" standalone="no"?><!DOCTYPE svg PUBLIC "-//W3C//DTD SVG 1.1//EN" "http://www.w3.org/Graphics/SVG/1.1/DTD/svg11.dtd"><svg t="1548311573312" class="icon" style="" viewBox="0 0 1390 1024" version="1.1" xmlns="http://www.w3.org/2000/svg" p-id="3702" xmlns:xlink="http://www.w3.org/1999/xlink" width="271.484375" height="200"><defs><style type="text/css"></style></defs><path d="M1279.461328 1023.998758h-73.995772a7.040297 7.040297 0 1 1 0-14.080594h73.995772a7.040297 7.040297 0 1 1 0 14.080594zM1151.650562 1023.998758H167.345221a7.040297 7.040297 0 1 1 0-14.080594h984.305341a7.040297 7.040297 0 1 1 0 14.080594zM135.263372 1023.998758H111.45999a7.040297 7.040297 0 1 1 0-14.080594h23.803382a7.040297 7.040297 0 1 1 0 14.080594z" fill="#7ECAFC" p-id="3703"></path><path d="M125.553003 465.710263c-0.699186-7.821449-7.606601-13.593772-15.426808-12.894586a14.627028 14.627028 0 0 0-9.558858 5.065686 13.660834 13.660834 0 0 0-3.179249 10.316413 14.6084 14.6084 0 0 0 5.1402 9.558859 13.088321 13.088321 0 0 0 9.003731 3.381677h1.126398c7.818965-0.700428 13.59253-7.607843 12.894586-15.428049z m-8.663453 11.405555a11.529744 11.529744 0 0 1-12.756735-1.398373 10.561067 10.561067 0 0 1-4.0523-7.801578 11.539679 11.539679 0 0 1 2.593074-8.488346 10.578453 10.578453 0 0 1 7.821449-4.053542h1.033256a11.447779 11.447779 0 0 1 11.508632 10.475376 11.529744 11.529744 0 0 1-6.147376 11.266463zM1225.903406 112.364088c-0.968677-10.820623-10.527536-18.809727-21.346916-17.841049a20.221761 20.221761 0 0 0-13.223688 7.008008 18.901627 18.901627 0 0 0-4.401272 14.27433 20.210584 20.210584 0 0 0 7.113569 13.224929 18.108057 18.108057 0 0 0 12.457439 4.679457h1.558577c10.819381-0.966194 18.807243-10.52381 17.842291-21.345675z m-11.986761 15.78199a15.955855 15.955855 0 0 1-17.652282-1.934871 14.6084 14.6084 0 0 1-5.608393-10.794543 15.96579 15.96579 0 0 1 3.587832-11.745834 14.639447 14.639447 0 0 1 10.821864-5.608393h1.430662c8.279708-0.074514 15.221895 6.241759 15.922324 14.494145a15.947161 15.947161 0 0 1-8.502007 15.589496zM205.483787 100.95605a3.055059 3.055059 0 0 1-3.055059-3.053818V78.146182L188.47729 92.098862a3.132057 3.132057 0 0 1-4.428594-4.427353l13.955163-13.952679h-19.790823a3.06872 3.06872 0 1 1 0-6.138682h19.790823L184.048696 53.793882a2.915967 2.915967 0 0 1 0-4.427352 2.914725 2.914725 0 0 1 2.215539-1.01587c0.850697 0 1.656687 0.368843 2.213055 1.01587L202.428728 63.185085V43.427792a3.051334 3.051334 0 0 1 4.693117-3.164346 3.04264 3.04264 0 0 1 1.277909 3.164346v19.757293l14.089288-13.953922a2.918451 2.918451 0 0 1 4.428594 0 2.918451 2.918451 0 0 1 0 4.427353l-13.955163 13.955163h19.75605a3.067478 3.067478 0 1 1 0 6.136198h-19.75605l13.955163 13.956405c0.791086 0.787361 1.097834 1.94108 0.809715 3.021529a3.138266 3.138266 0 0 1-2.213055 2.215538 3.134541 3.134541 0 0 1-3.025254-0.81344l-14.089288-13.984969v19.75605c0.336553 1.71133-1.372293 3.053817-3.051334 3.053818h0.135367zM186.128868 899.131281h-8.443637v-8.44488c0-1.404582-1.136333-2.540915-2.540915-2.540915s-2.540915 1.136333-2.540916 2.540915v8.44488h-8.443637a2.539673 2.539673 0 1 0 0 5.08183h8.443637v8.443637a2.529738 2.529738 0 0 0 2.528497 2.526013l0.026079-0.109287a2.521045 2.521045 0 0 0 2.527255-2.528496v-8.330625h8.443637a2.542157 2.542157 0 0 0 0-5.083072zM1217.115764 858.24192c0 16.738248-11.334767 29.903566-25.352025 29.903566 14.05824 0 25.352025 13.391343 25.352025 29.904808 0-16.740732 11.336009-29.904808 25.348299-29.904808-14.05824 0-25.348299-13.386376-25.348299-29.903566z m0 0" fill="#CCCCCC" p-id="3704"></path><path d="M988.198679 129.231493H402.550016C319.268602 129.231493 252.104489 196.395606 252.104489 279.675778v586.993634c0 81.935201 67.164113 149.094346 150.445527 149.094347h586.992392c81.936443 0 149.095588-67.159146 149.095588-150.443044V279.675778c-0.001242-83.280172-67.160387-150.444285-150.439317-150.444285z" fill="#DFEFF7" p-id="3705"></path><path d="M326.618131 866.669412v-586.993634c0-83.280172 67.164113-150.444285 150.445527-150.444285h-74.513642C319.268602 129.231493 252.104489 196.395606 252.104489 279.675778v586.993634c0 81.935201 67.164113 149.094346 150.445527 149.094347h74.513642c-83.281414 0-150.445527-67.159146-150.445527-149.094347z" fill="#C7E6F9" p-id="3706"></path><path d="M989.542408 1022.804056H402.550016c-86.838198 0-157.485824-70.04034-157.485824-156.134644v-586.993634c0-42.158577 16.355744-81.732772 46.054398-111.431426s69.272849-46.054398 111.431426-46.054398h585.648663c42.157335 0 81.73153 16.355744 111.428942 46.054398 29.69617 29.698654 46.050673 69.271607 46.050673 111.431426v326.867752a7.040297 7.040297 0 1 1-14.080595 0V279.675778c0-79.072635-64.328869-143.403988-143.39902-143.403988H402.550016c-79.073877 0-143.403988 64.330111-143.403988 143.403988v586.993634c0 78.327499 64.330111 142.054049 143.403988 142.054049h586.992392c78.328741 0 142.055291-64.330111 142.055291-143.402746v-51.587036a7.040297 7.040297 0 1 1 14.080595 0v51.587036c-0.001242 86.836957-70.042824 157.483341-156.135886 157.483341z" fill="#7ECAFC" p-id="3707"></path><path d="M1138.636754 709.003513a7.040297 7.040297 0 0 1-7.040297-7.040297v-58.989966a7.040297 7.040297 0 1 1 14.080595 0v58.989966a7.040297 7.040297 0 0 1-7.040298 7.040297zM614.829447 360.515629c-4.407482-3.759213-10.140065-5.829451-16.143381-5.829451s-11.739624 2.073963-16.164492 5.846837l-92.975639 79.682405-34.395497-29.499951c-4.407482-3.755488-10.138823-5.824483-16.139655-5.824483-6.002074 0-11.733415 2.070237-16.137171 5.826967-4.905481 4.182699-7.71713 10.145032-7.715888 16.354503 0.001242 6.210712 2.807922 12.161868 7.679873 16.312278l50.326514 43.245234c4.381402 3.877193 10.151242 6.013251 16.243974 6.013251 6.0977 0 11.737141-2.016836 16.373131-5.886578l109.046989-93.541943c4.899272-4.178973 7.709678-10.138823 7.709678-16.349534s-2.810406-12.170562-7.708436-16.349535z" fill="#7ECAFC" p-id="3708"></path><path d="M964.756687 426.276401H679.707233c-13.734106 0-24.904943 11.172079-24.904943 24.904943v3.150686c0 13.734106 11.172079 24.907427 24.904943 24.907426h285.183579c6.606876 0 13.063483-2.719748 17.711892-7.462541 4.66828-4.761422 7.17318-10.974618 7.060168-17.503254v-3.092317c-0.001242-13.732864-11.173321-24.904943-24.906185-24.904943z" fill="#C7E6F9" p-id="3709"></path><path d="M614.830689 503.245268c-4.40624-3.761697-10.140065-5.833176-16.144623-5.833176s-11.740866 2.073963-16.164492 5.848079l-92.975639 79.67247-34.394255-29.493742c-4.408724-3.756729-10.141307-5.826967-16.140897-5.826967-6.003316 0-11.734657 2.070237-16.132204 5.824483-4.90424 4.177732-7.719613 10.136339-7.720855 16.347052s2.804197 12.166836 7.679873 16.322213l50.3439 43.26883c4.381402 3.86229 10.145032 5.989655 16.226588 5.989655 5.675456 0 11.31738-1.94729 15.88755-5.484204l109.535054-93.9468c4.901756-4.185183 7.71092-10.148758 7.705952-16.360712-0.003726-6.210712-2.815374-12.16311-7.705952-16.327181z" fill="#FFFFFF" p-id="3710"></path><path d="M964.756687 567.816306H679.707233c-13.734106 0-24.904943 11.172079-24.904943 24.903701v3.150686c0 13.735348 11.172079 24.908669 24.904943 24.908668h285.183579c6.606876 0 13.063483-2.719748 17.711892-7.462541 4.66828-4.761422 7.17318-10.974618 7.060168-17.504496v-3.092317c-0.001242-13.731622-11.173321-24.903701-24.906185-24.903701zM614.821996 658.172791c-4.404998-3.751762-10.135097-5.819515-16.13593-5.819516-5.99959 0-11.734657 2.070237-16.164492 5.84187l-92.975639 79.682405-34.394255-29.496225c-4.408724-3.756729-10.141307-5.826967-16.140897-5.826967-6.003316 0-11.734657 2.070237-16.132204 5.824483-4.90424 4.177732-7.719613 10.136339-7.720855 16.347051s2.804197 12.166836 7.679873 16.322213l50.342658 43.267588c4.382644 3.864774 10.146274 5.993381 16.22783 5.993381 6.085281 0 11.720996-2.01311 16.373131-5.88161l109.048231-93.551878c4.89803-4.180215 7.708436-10.138823 7.708436-16.348293s-2.811648-12.16932-7.715887-16.354502z" fill="#7ECAFC" p-id="3711"></path><path d="M964.756687 719.47268H679.707233c-13.734106 0-24.904943 11.173321-24.904943 24.908669v3.150685c0 13.734106 11.172079 24.906185 24.904943 24.906185h285.183579c6.606876 0 13.063483-2.718506 17.714376-7.462541 4.665796-4.761422 7.170696-10.974618 7.057684-17.502013v-3.092316c-0.001242-13.735348-11.173321-24.908669-24.906185-24.908669z" fill="#C7E6F9" p-id="3712"></path></svg>