<?xml version="1.0" standalone="no"?><!DOCTYPE svg PUBLIC "-//W3C//DTD SVG 1.1//EN" "http://www.w3.org/Graphics/SVG/1.1/DTD/svg11.dtd"><svg t="1548311531944" class="icon" style="" viewBox="0 0 1390 1024" version="1.1" xmlns="http://www.w3.org/2000/svg" p-id="3282" xmlns:xlink="http://www.w3.org/1999/xlink" width="271.484375" height="200"><defs><style type="text/css"></style></defs><path d="M1279.461328 1023.998758h-73.995772a7.040297 7.040297 0 1 1 0-14.080594h73.995772a7.040297 7.040297 0 1 1 0 14.080594zM1151.650562 1023.998758H167.345221a7.040297 7.040297 0 1 1 0-14.080594h984.305341a7.040297 7.040297 0 1 1 0 14.080594zM135.263372 1023.998758H111.45999a7.040297 7.040297 0 1 1 0-14.080594h23.803382a7.040297 7.040297 0 1 1 0 14.080594z" fill="#7ECAFC" p-id="3283"></path><path d="M84.337024 469.509217c-0.699186-7.821449-7.606601-13.593772-15.426808-12.894586a14.627028 14.627028 0 0 0-9.558858 5.065686 13.660834 13.660834 0 0 0-3.179249 10.316413 14.6084 14.6084 0 0 0 5.140199 9.558859 13.088321 13.088321 0 0 0 9.003732 3.381677h1.126398c7.820207-0.700428 13.593772-7.607843 12.894586-15.428049z m-8.662211 11.405554a11.529744 11.529744 0 0 1-12.756736-1.398372 10.561067 10.561067 0 0 1-4.0523-7.801579A11.539679 11.539679 0 0 1 61.458852 463.226475a10.578453 10.578453 0 0 1 7.821449-4.053542h1.033255a11.447779 11.447779 0 0 1 11.508632 10.475376 11.529744 11.529744 0 0 1-6.147375 11.266462zM1279.924555 239.452072c-0.968677-10.820623-10.527536-18.809727-21.346917-17.841049a20.221761 20.221761 0 0 0-13.223687 7.008008 18.901627 18.901627 0 0 0-4.401273 14.27433 20.210584 20.210584 0 0 0 7.113569 13.224929 18.108057 18.108057 0 0 0 12.457439 4.679457h1.558577c10.819381-0.966194 18.807243-10.52381 17.842292-21.345675z m-11.986761 15.78199a15.955855 15.955855 0 0 1-17.652282-1.934871 14.6084 14.6084 0 0 1-5.608394-10.794543 15.96579 15.96579 0 0 1 3.587832-11.745834 14.639447 14.639447 0 0 1 10.821865-5.608393h1.430662c8.279708-0.074514 15.221895 6.241759 15.922323 14.494145a15.947161 15.947161 0 0 1-8.502006 15.589496zM252.106973 121.996219a3.055059 3.055059 0 0 1-3.05506-3.05506V99.186351l-13.951437 13.952679a3.132057 3.132057 0 0 1-4.428594-4.427352l13.955163-13.952679h-19.790823a3.06872 3.06872 0 1 1 0-6.138683h19.790823l-13.955163-13.786265a2.915967 2.915967 0 0 1 0-4.427353 2.914725 2.914725 0 0 1 2.215539-1.015869c0.850697 0 1.656687 0.368843 2.213055 1.015869l13.951437 13.818555V64.467961a3.051334 3.051334 0 0 1 4.693118-3.164346 3.04264 3.04264 0 0 1 1.277909 3.164346V84.225253l14.089288-13.953921a2.918451 2.918451 0 0 1 4.428594 0 2.918451 2.918451 0 0 1 0 4.427352l-13.955163 13.955164h19.75605a3.067478 3.067478 0 1 1 0 6.136198h-19.75605l13.955163 13.956405c0.791086 0.787361 1.097834 1.94108 0.809715 3.021528a3.138266 3.138266 0 0 1-2.213055 2.215539 3.134541 3.134541 0 0 1-3.025254-0.81344l-14.089288-13.983727v19.75605c0.336553 1.71133-1.372293 3.053817-3.051334 3.053818h0.135367zM191.855242 932.662419h-8.443638v-8.444879c0-1.404582-1.136333-2.540915-2.540915-2.540915s-2.540915 1.136333-2.540915 2.540915v8.444879h-8.443638a2.539673 2.539673 0 1 0 0 5.081831h8.443638v8.443637a2.529738 2.529738 0 0 0 2.528496 2.526013l0.02608-0.109287a2.521045 2.521045 0 0 0 2.527254-2.528496v-8.330625h8.443638a2.542157 2.542157 0 0 0 0-5.083073zM1206.404428 746.759576c0 16.738248-11.334767 29.903566-25.352025 29.903566 14.05824 0 25.352025 13.391343 25.352025 29.904809 0-16.740732 11.336009-29.904808 25.348299-29.904809-14.05824 0-25.348299-13.387618-25.348299-29.903566z m0 0" fill="#CCCCCC" p-id="3284"></path><path d="M988.198679 129.231493H402.550016C319.268602 129.231493 252.104489 196.395606 252.104489 279.675778v586.993634c0 81.935201 67.164113 149.094346 150.445527 149.094347h586.992392c81.936443 0 149.095588-67.159146 149.095588-150.443044V279.675778c-0.001242-83.280172-67.160387-150.444285-150.439317-150.444285z" fill="#DFEFF7" p-id="3285"></path><path d="M326.618131 866.669412v-586.993634c0-83.280172 67.164113-150.444285 150.445527-150.444285h-74.513642C319.268602 129.231493 252.104489 196.395606 252.104489 279.675778v586.993634c0 81.935201 67.164113 149.094346 150.445527 149.094347h74.513642c-83.281414 0-150.445527-67.159146-150.445527-149.094347z" fill="#C7E6F9" p-id="3286"></path><path d="M989.542408 1022.804056H402.550016c-86.838198 0-157.485824-70.04034-157.485824-156.134644v-586.993634c0-42.158577 16.355744-81.732772 46.054398-111.431426s69.272849-46.054398 111.431426-46.054398h585.648663c42.157335 0 81.73153 16.355744 111.428942 46.054398 29.69617 29.698654 46.050673 69.271607 46.050673 111.431426v326.867752a7.040297 7.040297 0 1 1-14.080595 0V279.675778c0-79.072635-64.328869-143.403988-143.39902-143.403988H402.550016c-79.073877 0-143.403988 64.330111-143.403988 143.403988v586.993634c0 78.327499 64.330111 142.054049 143.403988 142.054049h586.992392c78.328741 0 142.055291-64.330111 142.055291-143.402746v-51.587036a7.040297 7.040297 0 1 1 14.080595 0v51.587036c-0.001242 86.836957-70.042824 157.483341-156.135886 157.483341z" fill="#7ECAFC" p-id="3287"></path><path d="M1138.636754 709.003513a7.040297 7.040297 0 0 1-7.040297-7.040297v-58.989966a7.040297 7.040297 0 1 1 14.080595 0v58.989966a7.040297 7.040297 0 0 1-7.040298 7.040297zM840.603299 329.084532c-8.828625-6.398238-21.299725-4.465851-27.757574 4.36029l-114.931083 158.081934-114.989453-158.081934c-6.400722-8.824899-18.926465-10.814413-27.752606-4.36029-8.828625 6.401964-10.814413 18.927707-4.359048 27.756332l123.264193 169.446506c-2.317374 7.833868 0.331586 16.606607 7.282466 21.684712 4.967576 3.58659 10.982069 4.467093 16.554448 3.087348 5.516493 1.378502 11.585629 0.498 16.551963-3.087348 6.954607-5.079347 9.601083-13.850844 7.283709-21.684712l123.264192-169.502391c6.401964-8.826141 4.414933-21.297241-4.411207-27.700447z m0 0" fill="#7ECAFC" p-id="3288"></path><path d="M895.17088 390.332262h-385.906152c-18.649523 0-33.712455 15.118818-33.712455 33.712456v361.625882c0 18.653248 15.12006 33.713697 33.712455 33.713697h385.960796c18.648281 0 33.712455-15.12006 33.712455-33.713697V424.044718c0.001242-18.649523-15.116334-33.712455-33.767099-33.712456z m0 0" fill="#C7E6F9" p-id="3289"></path><path d="M850.699897 766.136848H553.736954c-11.862572 0-21.518298-9.654484-21.518298-21.517056V524.466753c0-11.863814 9.655726-21.518298 21.518298-21.518298h297.017586c11.862572 0 21.517056 9.654484 21.517056 21.518298V744.565149c0 11.917215-9.654484 21.571699-21.571699 21.571699z m0 0" fill="#FFFFFF" p-id="3290"></path><path d="M639.812629 554.869561h-56.224268a5.178698 5.178698 0 0 0-5.18615 5.18615v56.22551a5.178698 5.178698 0 0 0 5.18615 5.184908h56.27767a5.181182 5.181182 0 0 0 5.188633-5.184908v-56.22551c-0.054643-2.868775-2.372018-5.186149-5.242035-5.18615zM730.360365 554.869561h-56.281396a5.178698 5.178698 0 0 0-5.186149 5.18615v56.22551a5.178698 5.178698 0 0 0 5.186149 5.184908h56.281396a5.17994 5.17994 0 0 0 5.187392-5.184908v-56.22551a5.182424 5.182424 0 0 0-5.187392-5.18615zM820.904375 554.869561h-56.278912a5.121571 5.121571 0 0 0-5.132748 5.130264v56.281396a5.17994 5.17994 0 0 0 5.187392 5.184908h56.278912a5.120329 5.120329 0 0 0 5.130264-5.132748v-56.27767c-0.054643-2.868775-2.372018-5.186149-5.184908-5.18615zM639.812629 657.220258h-56.280154a5.119087 5.119087 0 0 0-5.129022 5.132748v56.27767a5.178698 5.178698 0 0 0 5.18615 5.187391h56.27767a5.121571 5.121571 0 0 0 5.132748-5.130264v-56.280154a5.17994 5.17994 0 0 0-5.187392-5.187391zM730.360365 657.220258h-56.281396a5.178698 5.178698 0 0 0-5.186149 5.187391v56.223027a5.178698 5.178698 0 0 0 5.186149 5.187391h56.281396a5.181182 5.181182 0 0 0 5.187392-5.187391v-56.223027a5.181182 5.181182 0 0 0-5.187392-5.187391z" fill="#B1DDFC" p-id="3291"></path><path d="M764.624222 723.818067h56.278911a5.178698 5.178698 0 0 0 5.184908-5.187391v-56.223027a5.178698 5.178698 0 0 0-5.184908-5.187391h-56.278911a5.178698 5.178698 0 0 0-5.18615 5.187391v56.223027a5.181182 5.181182 0 0 0 5.18615 5.187391z m0 0" fill="#7ECAFC" p-id="3292"></path></svg>